<svg xmlns="http://www.w3.org/2000/svg" version="1.1" xmlns:xlink="http://www.w3.org/1999/xlink" xmlns:svgjs="http://svgjs.dev/svgjs" width="1000" height="502" viewBox="0 0 1000 502"><g transform="matrix(1,0,0,1,-0.6056348047761162,0.09114423413620898)"><svg viewBox="0 0 396 199" data-background-color="#ffffff" preserveAspectRatio="xMidYMid meet" height="502" width="1000" xmlns="http://www.w3.org/2000/svg" xmlns:xlink="http://www.w3.org/1999/xlink"><g id="tight-bounds" transform="matrix(1,0,0,1,0.24008861730862918,-0.03613088165957379)"><svg viewBox="0 0 395.52 199.07226176331915" height="199.07226176331915" width="395.52"><g><svg viewBox="0 0 395.52 199.07226176331915" height="199.07226176331915" width="395.52"><g><svg viewBox="0 0 395.52 199.07226176331915" height="199.07226176331915" width="395.52"><g id="textblocktransform"><svg viewBox="0 0 395.52 199.07226176331915" height="199.07226176331915" width="395.52" id="textblock"><g><svg viewBox="0 0 395.52 199.07226176331915" height="199.07226176331915" width="395.52"><path d="M394.594 42.697C392.735 22.034 387.435 16.289 387.435 16.289 371.165-4.994 350.86-0.407 332.619 2.651 300.414 2.775 268.339 7.321 236.208 9.759 168.767 10.131 100.749 4.015 33.643 19.099 27.339 23.728-6.54 20.009 1.121 45.342 3.129 55.881 10.456 67.576 10.232 77.247 11.236 78.941 12.631 75.056 13.226 77.495 15.309 84.066 18.711 80.966 21.501 84.851 17.614 95.224 20.403 103.862 23.062 112.912 18.377 115.268 12.371 114.152 9.675 121.963 9.396 127.625 7.89 126.55 6.235 126.302 5.026 126.137 2.59 126.757 2.999 128.534 4.394 134.609-1.594 138.122 2.162 144.073-0.422 150.52 3.948 156.099 3.353 163.084 3.278 164.489 3.687 165.687 4.338 166.018 7.22 167.795 3.018 171.266 3.464 175.027 33.029 200.733 65.104 182.962 95.394 194.782 103.259 186.516 97.346 197.716 100.489 195.98 102.943 193.955 104.728 202.344 107.499 197.592 107.927 196.228 107.276 193.004 108.8 193.624 109.6 193.955 110.307 193.872 110.418 191.971 110.586 189.12 109.117 190.897 108.726 189.409 112.947 181.887 111.906 199.782 115.866 199.038 115.68 196.848 114.528 193.707 116.889 194.12 119.232 190.979 119.306 188.376 121.389 195.443 121.463 196.972 121.835 198.046 122.43 198.79 128.938 191.103 135.409 201.518 142.233 198.046 146.417 194.244 150.433 200.113 154.672 198.666 156.16 197.509 157.666 195.443 159.098 198.914 176.632 199.658 195.319 196.559 211.943 199.038 256.364 194.41 303.835 200.939 350.674 194.823 361.719 192.467 373.192 189.12 383.958 186.433 383.958 186.433 392.679 179.077 392.679 146.015S394.538 117.086 394.817 90.761C395.096 64.435 396.398 63.361 394.538 42.697Z" opacity="1" fill="#074447" data-fill-palette-color="tertiary"></path><g transform="matrix(1,0,0,1,55.76832,26.230666666666668)"><svg width="283.98335999999995" viewBox="2.049999952316284 -36.5 70.69999694824219 36.5" height="146.61092842998582" data-palette-color="#3d9970"><path d="M28.3-19.1L28.3-19.1Q27.4-18.4 26.28-17.75 25.15-17.1 23.4-16.7L23.4-16.7Q23.65-16.45 24.2-15.83 24.75-15.2 25.25-14.35L25.25-14.35 31.45-3.85 35.9-2.9 35.9 0 24.1 0 24.1-2.9 17.55-15.75 12.75-15.75 12.75-3.95 17.5-2.9 17.5 0 2.05 0 2.05-2.9 6.25-3.95 6.25-32.05 2.05-33.1 2.05-36 20.75-36Q23.15-36 24.98-35.55 26.8-35.1 28.2-34.1L28.2-34.1Q30-32.85 31.05-30.78 32.1-28.7 32.1-26.6L32.1-26.6Q32.1-24.5 31.08-22.48 30.05-20.45 28.3-19.1ZM12.75-32.35L12.75-19.4 18.4-19.4Q21.15-19.4 22.95-20.95L22.95-20.95Q23.95-21.8 24.53-23.23 25.1-24.65 25.1-26.3L25.1-26.3Q25.1-27.8 24.5-29.03 23.9-30.25 22.9-31.05L22.9-31.05Q22.05-31.75 20.93-32.05 19.8-32.35 18.2-32.35L18.2-32.35 12.75-32.35ZM57.5-2.9L61.6-3.95 59.05-11.7 46.85-11.7 44.25-3.95 48.4-2.9 48.4 0 35.2 0 35.2-2.9 39.3-3.95 51-36.5 57.15-36.5 68.75-3.95 72.75-2.9 72.75 0 57.5 0 57.5-2.9ZM53.2-29.9L53-29.9 48.1-15.35 57.85-15.35 53.2-29.9Z" opacity="1" transform="matrix(1,0,0,1,0,0)" fill="#3d9970" class="wordmark-text-0" data-fill-palette-color="quaternary" id="text-0"></path></svg></g></svg></g></svg></g></svg></g><g></g></svg></g><defs></defs></svg><rect width="395.52" height="199.07226176331915" fill="none" stroke="none" visibility="hidden"></rect></g></svg></g></svg>