<?xml version="1.0" encoding="utf-8"?>
<!-- Generator: Adobe Illustrator 27.6.1, SVG Export Plug-In . SVG Version: 6.00 Build 0)  -->
<svg version="1.1" id="textblock" xmlns:svgjs="http://svgjs.dev/svgjs"
	 xmlns="http://www.w3.org/2000/svg" xmlns:xlink="http://www.w3.org/1999/xlink" x="0px" y="0px" viewBox="0 0 1000 164"
	 style="enable-background:new 0 0 1000 164;" xml:space="preserve">
<style type="text/css">
	.st0{fill:#FFFFFF;}
	.st1{fill:#77D4FC;}
	.st2{fill:#77D4FC;fill-opacity:0.75;}
	.st3{fill:#77D4FC;fill-opacity:0.5;}
	.st4{display:none;fill:none;}
</style>
<g transform="matrix(1,0,0,1,-0.6060606060606233,0.5468605314333246)">
	<g id="tight-bounds" transform="matrix(1,0,0,1,0.2400000000000091,-0.21674350331198866)">
		<g>
			<g transform="matrix(1,0,0,1,0,11.215716316916492)">
				<g id="textblocktransform">
					<g>
						<g transform="matrix(1,0,0,1,0,0)">
							<path id="text-0" class="st0" d="M76.6,34.6L76.6,34.6c0,6.4-1.8,11.7-5.5,16c-3.7,4.3-9.5,7.2-17.6,8.6l0,0l26.6,30.6
								c1.8,2.1,4,3.8,6.5,4.9c2.5,1.1,5.1,1.7,7.7,1.7l0,0v4.6H67.2L38.7,65.9c-1.9-2.3-3.6-3.9-5-4.7c-1.4-0.8-2.7-1.2-4-1.2l0,0
								v22.5c0,2.8,0.2,5.1,0.6,6.9c0.4,1.8,1.1,3.2,2.3,4.2c1.1,1,2.8,1.7,5,2c2.2,0.4,5.1,0.5,8.8,0.5l0,0v4.6H0.8v-4.6
								c2.5,0,4.6-0.2,6.1-0.5c1.6-0.3,2.8-1,3.7-2c0.9-0.9,1.5-2.3,1.8-4c0.3-1.7,0.5-3.9,0.5-6.6l0,0V30.1c0-2.7-0.1-4.8-0.3-6.5
								c-0.2-1.6-0.7-2.9-1.5-3.9c-0.8-0.9-1.9-1.6-3.3-2c-1.4-0.3-3.3-0.6-5.7-0.7l0,0v-4.6h39.7c11.1,0,19.7,2,25.7,5.9
								C73.6,22.2,76.6,27.6,76.6,34.6z M29.8,20.8v32.4h7.5c7.2,0,12.6-1.4,16.2-4.2c3.6-2.8,5.3-7.4,5.3-13.8l0,0
								c0-4.9-1.5-8.8-4.5-11.8c-3-3-7.1-4.5-12.4-4.5l0,0h-10C30.5,18.9,29.8,19.5,29.8,20.8L29.8,20.8z M97.9,93.5L97.9,93.5
								c0-2.5,0.8-4.5,2.5-6.3c1.7-1.7,3.7-2.6,6.2-2.6l0,0c2.5,0,4.6,0.9,6.3,2.6c1.7,1.7,2.5,3.8,2.5,6.3l0,0c0,2.4-0.8,4.4-2.5,6
								c-1.7,1.7-3.8,2.5-6.3,2.5l0,0c-2.5,0-4.5-0.8-6.2-2.5C98.7,97.9,97.9,95.9,97.9,93.5z M207.7,81l-2.6-6.9h-32.5
								c-3.6,8.1-5.4,13.7-5.4,16.9l0,0c0,2.3,0.9,3.8,2.6,4.4c1.7,0.6,4.3,0.9,7.7,0.9l0,0v4.6H146v-4.6c1.8-0.2,3.4-0.5,4.8-0.9
								c1.3-0.4,2.5-0.9,3.6-1.6c1-0.7,1.9-1.6,2.7-2.7c0.8-1.1,1.5-2.5,2.2-4.1l0,0l30.2-75.7h8.5l27.5,67.1c1.6,3.9,3,7,4.1,9.2
								c1.1,2.2,2.3,3.9,3.6,5.1c1.3,1.2,2.7,2,4.4,2.5c1.6,0.5,3.8,0.8,6.4,1l0,0v4.7h-43.4v-4.7c3.7-0.2,6.3-0.5,7.9-1.1
								c1.6-0.6,2.4-1.8,2.4-3.7l0,0c0-1.1-0.3-2.5-0.8-4.1C209.3,85.5,208.6,83.4,207.7,81L207.7,81z M188.8,32.4l-13.7,34.8h27.3
								l-13.2-34.8H188.8z M325.4,74.8l-1.8,26.1h-79.1v-4.6c2.5-0.1,4.6-0.3,6.2-0.7c1.6-0.4,2.8-1,3.7-2c0.8-0.9,1.4-2.2,1.7-3.9
								c0.3-1.7,0.5-3.9,0.5-6.5l0,0V30.1c0-2.7-0.1-4.8-0.4-6.5c-0.3-1.6-0.8-2.9-1.6-3.9c-0.8-0.9-1.9-1.6-3.3-2
								c-1.4-0.3-3.3-0.6-5.6-0.7l0,0v-4.6h39.6V17c-2.6,0.1-4.7,0.3-6.2,0.7c-1.6,0.4-2.8,1.1-3.6,2.1c-0.8,1-1.4,2.4-1.7,4.1
								c-0.3,1.8-0.4,4.1-0.4,7l0,0V79c0,3.2,0.3,5.8,1,7.9c0.6,2,1.8,3.6,3.4,4.7c1.6,1.1,3.8,1.9,6.4,2.3c2.7,0.4,6,0.6,10,0.6
								l0,0c4.4,0,8.2-0.3,11.1-0.8c3-0.5,5.5-1.5,7.5-3c2-1.5,3.7-3.5,4.9-6s2.3-5.8,3.1-9.9l0,0H325.4z M412.1,74.8l-1.8,26.1
								h-79.1v-4.6c2.5-0.1,4.6-0.3,6.2-0.7c1.6-0.4,2.8-1,3.7-2s1.4-2.2,1.7-3.9c0.3-1.7,0.5-3.9,0.5-6.5l0,0V30.1
								c0-2.7-0.1-4.8-0.4-6.5c-0.3-1.6-0.8-2.9-1.5-3.9c-0.8-0.9-1.9-1.6-3.3-2c-1.4-0.3-3.3-0.6-5.6-0.7l0,0v-4.6h39.6V17
								c-2.6,0.1-4.7,0.3-6.3,0.7c-1.6,0.4-2.8,1.1-3.6,2.1c-0.8,1-1.4,2.4-1.7,4.1c-0.3,1.8-0.4,4.1-0.4,7l0,0V79
								c0,3.2,0.3,5.8,1,7.9c0.7,2,1.8,3.6,3.4,4.7c1.6,1.1,3.8,1.9,6.4,2.3c2.7,0.4,6,0.6,10,0.6l0,0c4.4,0,8.2-0.3,11.1-0.8
								c3-0.5,5.5-1.5,7.5-3c2-1.5,3.7-3.5,4.9-6s2.3-5.8,3.1-9.9l0,0H412.1z M446.8,22.8v29.2c4.9,0,8.8-0.2,11.8-0.5
								c3-0.3,5.3-0.9,6.9-1.9c1.7-0.9,2.8-2.3,3.5-4.2c0.7-1.8,1.2-4.3,1.6-7.5l0,0h4.3v33.7h-4.3c-0.5-3.1-1.1-5.5-1.8-7.4
								c-0.8-1.8-2-3.2-3.7-4.2c-1.7-0.9-4-1.6-6.8-1.8c-2.9-0.3-6.7-0.4-11.5-0.4l0,0v23.7c0,2.5,0.3,4.5,1,6.2
								c0.7,1.7,1.8,3,3.3,4.1c1.5,1,3.6,1.8,6.1,2.2c2.5,0.4,5.6,0.6,9.3,0.6l0,0c4.4,0,8.1-0.3,11.1-0.9c3-0.6,5.5-1.7,7.5-3.2
								s3.6-3.6,4.8-6.2c1.2-2.6,2.3-5.8,3.1-9.7l0,0h4.6l-1.8,26.3h-77.9v-4.6c2.5-0.1,4.6-0.3,6.2-0.7c1.6-0.4,2.8-1,3.7-2
								s1.4-2.2,1.7-3.9c0.3-1.7,0.5-3.9,0.5-6.5l0,0V30.1c0-2.7-0.1-4.8-0.4-6.5c-0.3-1.6-0.8-2.9-1.5-3.9c-0.8-0.9-1.9-1.6-3.3-2
								c-1.4-0.3-3.3-0.6-5.6-0.7l0,0v-4.6h72.6l0.8,22.5h-4.9c-0.5-3.2-1.2-5.9-2.2-8c-1-2.1-2.4-3.8-4.1-5.1
								c-1.8-1.3-4-2.1-6.8-2.6c-2.8-0.5-6.2-0.8-10.3-0.8l0,0h-13c-2,0-3.2,0.3-3.7,0.8C447.1,19.8,446.8,20.9,446.8,22.8
								L446.8,22.8z M593.9,102h-15.4l-50.9-72.5h-0.5v49.4c0,3.8,0.1,6.9,0.4,9.1c0.3,2.2,0.8,3.9,1.7,5.2c0.9,1.2,2.1,2,3.7,2.4
								c1.6,0.4,3.6,0.6,6.1,0.7l0,0v4.6H505v-4.6c2.8-0.1,5.1-0.3,6.8-0.8c1.7-0.4,3.1-1.2,4-2.3c0.9-1.1,1.6-2.8,1.9-4.9
								c0.3-2.1,0.5-4.9,0.5-8.5l0,0V33.6c0-3.2-0.2-5.9-0.5-8c-0.3-2.1-0.9-3.8-1.7-5s-2-2.1-3.6-2.6c-1.6-0.5-3.7-0.8-6.3-1l0,0
								v-4.6h32l46.3,66.4h0.5V34.4c0-3.8-0.1-6.8-0.4-9c-0.3-2.3-0.9-4-1.7-5.2c-0.9-1.2-2.1-2-3.7-2.4c-1.6-0.4-3.6-0.6-6.2-0.7
								l0,0v-4.6h34.1V17c-2.8,0.1-5.1,0.3-6.8,0.7c-1.7,0.4-3.1,1.2-4,2.4c-1,1.1-1.6,2.8-1.9,4.9c-0.3,2.1-0.5,5-0.5,8.5l0,0V102z
								 M655.1,103.5V30.1c0-2.7-0.1-4.8-0.4-6.5c-0.3-1.6-0.8-2.9-1.5-3.9c-0.8-0.9-1.9-1.6-3.3-2c-1.4-0.3-3.3-0.6-5.7-0.7l0,0
								v-4.6h38.7V17c-2.4,0.1-4.3,0.3-5.7,0.7c-1.5,0.4-2.6,1.1-3.3,2.1c-0.8,1-1.3,2.4-1.5,4.1c-0.2,1.8-0.3,4.1-0.3,7l0,0v70.2
								c0,9.6-2.5,17-7.4,22.1c-4.9,5.1-12.2,7.6-21.9,7.6l0,0c-7,0-12.4-1.2-16.2-3.6c-3.8-2.4-5.7-5.4-5.7-9.1l0,0
								c0-2.2,0.7-3.9,2.1-5.1c1.4-1.2,3.2-1.8,5.2-1.8l0,0c1.8,0,3.2,0.5,4.2,1.4c1,0.9,2.3,2.6,3.9,5.2l0,0
								c1.5,2.5,2.9,4.2,4.1,5.1c1.2,0.8,2.7,1.3,4.5,1.3l0,0c3.3,0,5.8-1.8,7.6-5.4C654.2,115.1,655.1,110,655.1,103.5L655.1,103.5
								z M766.7,34.6L766.7,34.6c0,6.4-1.8,11.7-5.5,16c-3.7,4.3-9.5,7.2-17.6,8.6l0,0l26.6,30.6c1.8,2.1,4,3.8,6.5,4.9
								c2.5,1.1,5.1,1.7,7.7,1.7l0,0v4.6h-27.2l-28.5-34.9c-1.9-2.3-3.6-3.9-5-4.7c-1.4-0.8-2.7-1.2-4-1.2l0,0v22.5
								c0,2.8,0.2,5.1,0.6,6.9c0.4,1.8,1.1,3.2,2.3,4.2c1.1,1,2.8,1.7,5,2c2.2,0.4,5.1,0.5,8.8,0.5l0,0v4.6h-45.6v-4.6
								c2.5,0,4.6-0.2,6.1-0.5c1.6-0.3,2.8-1,3.7-2c0.9-0.9,1.5-2.3,1.8-4c0.3-1.7,0.5-3.9,0.5-6.6l0,0V30.1c0-2.7-0.1-4.8-0.3-6.5
								c-0.2-1.6-0.7-2.9-1.5-3.9c-0.8-0.9-1.9-1.6-3.3-2c-1.4-0.3-3.3-0.6-5.7-0.7l0,0v-4.6h39.7c11.1,0,19.7,2,25.7,5.9
								C763.7,22.2,766.7,27.6,766.7,34.6z M719.8,20.8v32.4h7.5c7.2,0,12.6-1.4,16.1-4.2c3.6-2.8,5.4-7.4,5.4-13.8l0,0
								c0-4.9-1.5-8.8-4.5-11.8c-3-3-7.1-4.5-12.4-4.5l0,0h-10C720.5,18.9,719.8,19.5,719.8,20.8L719.8,20.8z M787.9,93.5
								L787.9,93.5c0-2.5,0.8-4.5,2.5-6.3c1.6-1.7,3.7-2.6,6.1-2.6l0,0c2.5,0,4.6,0.9,6.3,2.6c1.7,1.7,2.5,3.8,2.5,6.3l0,0
								c0,2.4-0.8,4.4-2.5,6c-1.7,1.7-3.8,2.5-6.3,2.5l0,0c-2.5,0-4.5-0.8-6.1-2.5C788.8,97.9,787.9,95.9,787.9,93.5z"/>
						</g>
					</g>
				</g>
			</g>
			<g transform="matrix(1,0,0,1,409.3826253677088,0)">
				<g>
					<rect x="424.2" y="-0.3" class="st1" width="45.1" height="165.1"/>
					<rect x="479.3" y="-0.3" class="st2" width="45.1" height="165.1"/>
					<rect x="534.3" y="-0.3" class="st3" width="45.1" height="165.1"/>
				</g>
			</g>
		</g>
		<rect x="0.8" y="-0.3" class="st4" width="997.9" height="165.1"/>
	</g>
</g>
</svg>
