<svg xmlns="http://www.w3.org/2000/svg" version="1.1" xmlns:xlink="http://www.w3.org/1999/xlink" xmlns:svgjs="http://svgjs.dev/svgjs" width="1000" height="1000" viewBox="0 0 1000 1000"><rect width="1000" height="1000" fill="#ffffff"></rect><g transform="matrix(0.7,0,0,0.7,149.57575757575756,438.66981014022474)"><svg viewBox="0 0 396 70" data-background-color="#ffffff" preserveAspectRatio="xMidYMid meet" height="176" width="1000" xmlns="http://www.w3.org/2000/svg" xmlns:xlink="http://www.w3.org/1999/xlink"><g id="tight-bounds" transform="matrix(1,0,0,1,0.2400000000000091,-0.153301216036823)"><svg viewBox="0 0 395.52 70.30660243207363" height="70.30660243207363" width="395.52"><g><svg viewBox="0 0 499.4710427112059 88.78466835110746" height="70.30660243207363" width="395.52"><g transform="matrix(1,0,0,1,0,12.270529417555373)"><svg viewBox="0 0 395.52 64.24360951599671" height="64.24360951599671" width="395.52"><g id="textblocktransform"><svg viewBox="0 0 395.52 64.24360951599671" height="64.24360951599671" width="395.52" id="textblock"><g><svg viewBox="0 0 395.52 64.24360951599671" height="64.24360951599671" width="395.52"><g transform="matrix(1,0,0,1,0,0)"><svg width="395.52" viewBox="4.449999809265137 -37.95000076293945 243.77999877929688 39.60000228881836" height="64.24360951599671" data-palette-color="#233565"><path d="M9.95 0L4.45 0 4.45-36.25 14.35-36.25Q17.2-36.25 19.58-35.5 21.95-34.75 23.68-33.27 25.4-31.8 26.35-29.68 27.3-27.55 27.3-24.8L27.3-24.8Q27.3-23.3 27-21.83 26.7-20.35 26.03-18.98 25.35-17.6 24.3-16.43 23.25-15.25 21.75-14.45L21.75-14.45Q23.75-11.3 26.1-7.48 28.45-3.65 30.85 0L30.85 0 24.3 0Q23.3-1.55 22.23-3.25 21.15-4.95 20.08-6.63 19-8.3 17.98-9.93 16.95-11.55 16.05-12.95L16.05-12.95 15.05-12.95 9.95-12.95 9.95 0ZM9.95-31.15L9.95-18.1 14.9-18.1Q16.9-18.1 18.25-18.78 19.6-19.45 20.38-20.45 21.15-21.45 21.48-22.6 21.8-23.75 21.8-24.7L21.8-24.7Q21.8-25.65 21.48-26.78 21.15-27.9 20.35-28.88 19.55-29.85 18.23-30.5 16.9-31.15 14.95-31.15L14.95-31.15 9.95-31.15ZM63.7 0L58.3 0Q58.05-0.55 57.6-1.6 57.15-2.65 56.57-4.03 56-5.4 55.32-7.03 54.65-8.65 53.95-10.4L53.95-10.4 41.15-10.4 36.85 0 31.45 0 47.6-37.95Q47.9-37.25 48.67-35.4 49.45-33.55 50.52-30.98 51.6-28.4 52.92-25.28 54.25-22.15 55.62-18.95 57-15.75 58.32-12.65 59.65-9.55 60.75-6.95 61.85-4.35 62.62-2.53 63.4-0.7 63.7 0L63.7 0ZM47.05-24.7L43.05-15 52.1-15Q51.4-16.65 50.77-18.18 50.15-19.7 49.62-20.98 49.1-22.25 48.7-23.2 48.3-24.15 48.1-24.7L48.1-24.7Q48.05-24.8 47.87-25.4 47.7-26 47.6-26.5L47.6-26.5Q47.5-26 47.3-25.4 47.1-24.8 47.05-24.7L47.05-24.7ZM73.19 0L73.19-36.25 82.29-36.25Q87.79-36.25 91.59-34.6 95.39-32.95 97.77-30.28 100.14-27.6 101.22-24.28 102.29-20.95 102.29-17.65L102.29-17.65Q102.29-13.6 100.84-10.33 99.39-7.05 96.89-4.75 94.39-2.45 91.09-1.23 87.79 0 84.09 0L84.09 0 73.19 0ZM78.64-5.2L83.29-5.2Q86.19-5.2 88.67-6.05 91.14-6.9 92.97-8.53 94.79-10.15 95.82-12.53 96.84-14.9 96.84-18L96.84-18Q96.84-21.3 95.69-23.75 94.54-26.2 92.69-27.83 90.84-29.45 88.52-30.23 86.19-31 83.79-31L83.79-31 78.64-31 78.64-5.2ZM133.24 0L108.74 0 108.74-36.25 132.54-36.25 132.54-31.3 114.24-31.3 114.24-20.7 130.54-20.7 130.54-15.65 114.24-15.65 114.24-5.05 133.24-5.05 133.24 0ZM160.34-34.25L160.34-34.25 158.39-29.8Q156.34-30.55 154.31-31 152.29-31.45 150.44-31.45L150.44-31.45Q147.29-31.45 145.41-30.15 143.54-28.85 143.54-26.85L143.54-26.85Q143.54-25.15 144.89-24.13 146.24-23.1 148.24-22.28 150.24-21.45 152.59-20.63 154.94-19.8 156.94-18.5 158.94-17.2 160.29-15.23 161.64-13.25 161.64-10.15L161.64-10.15Q161.64-7.75 160.76-5.83 159.89-3.9 158.16-2.5 156.44-1.1 153.86-0.35 151.29 0.4 147.84 0.4L147.84 0.4Q145.64 0.4 143.86 0.1 142.09-0.2 140.66-0.68 139.24-1.15 138.16-1.7 137.09-2.25 136.34-2.7L136.34-2.7 138.74-7.45Q140.74-6.3 143.19-5.6 145.64-4.9 147.64-4.9L147.64-4.9Q148.64-4.9 150.11-5.15 151.59-5.4 152.94-6.03 154.29-6.65 155.26-7.7 156.24-8.75 156.24-10.35L156.24-10.35Q156.24-11.8 155.46-12.83 154.69-13.85 153.41-14.63 152.14-15.4 150.51-16.03 148.89-16.65 147.19-17.32 145.49-18 143.86-18.75 142.24-19.5 140.96-20.58 139.69-21.65 138.91-23.08 138.14-24.5 138.14-26.5L138.14-26.5Q138.14-28.35 138.89-30.15 139.64-31.95 141.14-33.35 142.64-34.75 144.86-35.6 147.09-36.45 150.04-36.45L150.04-36.45Q151.84-36.45 153.56-36.15 155.29-35.85 156.69-35.48 158.09-35.1 159.06-34.75 160.04-34.4 160.34-34.25ZM167.84 0L167.84-36.25 173.29-36.25 173.29 0 167.84 0ZM197.13-17.35L209.23-17.35 209.23-2.15Q207.13-0.95 204.23-0.28 201.33 0.4 198.33 0.4L198.33 0.4Q194.03 0.4 190.61-0.95 187.18-2.3 184.73-4.67 182.28-7.05 180.98-10.3 179.68-13.55 179.68-17.4L179.68-17.4Q179.68-21.65 181.21-25.18 182.73-28.7 185.36-31.25 187.98-33.8 191.41-35.23 194.83-36.65 198.68-36.65L198.68-36.65Q201.28-36.65 204.13-35.98 206.98-35.3 209.08-34.05L209.08-34.05 206.43-29.6Q205.68-30.05 204.71-30.4 203.73-30.75 202.68-31 201.63-31.25 200.58-31.38 199.53-31.5 198.58-31.5L198.58-31.5Q195.93-31.5 193.48-30.45 191.03-29.4 189.18-27.55 187.33-25.7 186.23-23.2 185.13-20.7 185.13-17.8L185.13-17.8Q185.13-15.15 186.11-12.8 187.08-10.45 188.83-8.65 190.58-6.85 193.03-5.8 195.48-4.75 198.43-4.75L198.43-4.75Q199.58-4.75 201.16-4.98 202.73-5.2 204.18-5.75L204.18-5.75 204.18-12.65 197.13-12.65 197.13-17.35ZM242.78-36.25L248.23-36.25 248.23 1.65Q247.53 0.75 245.53-1.25 243.53-3.25 240.93-5.85 238.33-8.45 235.41-11.3 232.48-14.15 229.88-16.73 227.28-19.3 225.33-21.33 223.38-23.35 222.73-24.2L222.73-24.2 221.78-25.5 221.93-23.9 221.93 0 216.43 0 216.43-37.95Q216.98-37.25 218.26-35.95 219.53-34.65 221.26-32.93 222.98-31.2 225.06-29.2 227.13-27.2 229.26-25.15 231.38-23.1 233.46-21.13 235.53-19.15 237.26-17.45 238.98-15.75 240.23-14.45 241.48-13.15 241.98-12.5L241.98-12.5 242.93-11.1 242.78-12.8 242.78-36.25Z" opacity="1" transform="matrix(1,0,0,1,0,0)" fill="#233565" class="wordmark-text-0" data-fill-palette-color="primary" id="text-0"></path></svg></g></svg></g></svg></g></svg></g><g transform="matrix(1,0,0,1,410.6863743600984,0)"><svg viewBox="0 0 88.78466835110746 88.78466835110746" height="88.78466835110746" width="88.78466835110746"><g data-palette-color="#8bd8bc"><rect width="24.267809349302706" height="88.78466835110746" fill="#8bd8bc" stroke="transparent" data-fill-palette-color="accent" x="0" fill-opacity="1"></rect><rect width="24.267809349302706" height="88.78466835110746" fill="#8bd8bc" stroke="transparent" data-fill-palette-color="accent" x="29.594889450369152" fill-opacity="0.75"></rect><rect width="24.267809349302706" height="88.78466835110746" fill="#8bd8bc" stroke="transparent" data-fill-palette-color="accent" x="59.189778900738304" fill-opacity="0.5"></rect></g></svg></g></svg></g><defs></defs></svg><rect width="395.52" height="70.30660243207363" fill="none" stroke="none" visibility="hidden"></rect></g></svg></g></svg>